<?xml version="1.0" encoding="utf-8"?>
<!-- Generator: Adobe Illustrator 19.0.0, SVG Export Plug-In . SVG Version: 6.00 Build 0)  -->
<svg version="1.1" id="Camada_1" xmlns="http://www.w3.org/2000/svg" xmlns:xlink="http://www.w3.org/1999/xlink" x="0px" y="0px"
	 viewBox="0 0 694 174.7" style="enable-background:new 0 0 694 174.7;" xml:space="preserve">
<style type="text/css">
	.st0{fill-rule:evenodd;clip-rule:evenodd;fill:#39383A;}
	.st1{fill-rule:evenodd;clip-rule:evenodd;fill:#FFFFFF;}
	.st2{fill-rule:evenodd;clip-rule:evenodd;fill:#ECB730;}
	.st3{fill-rule:evenodd;clip-rule:evenodd;fill:#808183;}
	.st4{fill:#39383A;}
	.st5{fill:#808183;}
	.st6{fill:none;stroke:#ECB730;stroke-width:1.7019;stroke-linecap:round;stroke-linejoin:round;stroke-miterlimit:22.9256;}
</style>
<g>
	<path class="st0" d="M115,155.9C57.4,121.1,40.7,93.1,25.5,31.4c75.8-21.7,104.4-21.3,178.8,0C190.5,94,170.7,118.8,115,155.9"/>
	<path class="st0" d="M115,163.5C51.1,124.9,32.7,93.9,15.8,25.6c84-24,115.7-23.6,198.3,0C198.7,94.9,176.7,122.4,115,163.5
		 M115,170.1C44.2,128,23.7,94.1,5,19.5c93.2-26.2,128.4-25.8,219.9,0C207.8,95.2,183.4,125.3,115,170.1z"/>
	<path class="st1" d="M40.3,41.4c19.6-4.7,37.2-10.1,57.5-11.8L81,28.2c44.5-3,72.2-1.9,85.4,4.7l-13.5,4.5
		c-15.8-0.6-31.4-0.1-47,1.2c12.9,2.4,27.1,3.6,39.4,7.5c-43,7.5-78.7,39.1-94.1,54.5C40.7,85.2,33.5,67.5,27.1,45
		C30.9,43.8,35.3,42.5,40.3,41.4"/>
	<path class="st2" d="M103.1,68.7c14.1-10.9,33.3-18.6,56.8-22.5c-2.3-0.8-6.1-1.1-8.8-1.1c5-3.2,11.4-4.9,18.4-7
		c41.9,7.7,12.9,18.7-5.3,29.3c4.9-7.2,4.4-11.3-0.3-12c-6.9-1.1-21.1,1.3-27.8,2.3c6.2,0.7,15.2,0.3,22.7,0.4
		C152.8,59.8,119.9,66.4,103.1,68.7"/>
	<path class="st3" d="M137.3,74c-15.3,25.2-12.7,48.5-8.3,72.1l0.3-0.2l0.3-0.2l0.3-0.2l0.3-0.2l0.3-0.2l0.3-0.2l0.3-0.2l0.3-0.2
		l0.3-0.2l0.3-0.2l0.3-0.2l0.3-0.2l0.3-0.2l0.3-0.2l0.3-0.2l0.3-0.2l1.3-0.9l0.3-0.2l0.3-0.2l0.3-0.2l0.9-0.7l0.3-0.2l0.3-0.2
		l0.3-0.2l0.3-0.2l1.2-0.9l0.3-0.2l0.3-0.2l0.3-0.2l1.5-1.1l0.3-0.2l0.3-0.2l1.4-1.1l0.3-0.2l0.3-0.2l0.3-0.2l1.1-0.9l0.3-0.2
		l0.3-0.2l0.3-0.2l0.3-0.2l0.8-0.7l0.3-0.2C137.3,116.9,130.9,99.3,137.3,74 M138.7,66.2C109,80.5,94.7,98.7,83.1,117.2l-7.2,10.9
		c9.9,8.6,21.8,17,36.2,25.7C110.1,119.7,108,96.1,138.7,66.2z"/>
	<path class="st4" d="M369.5,105.9c0.4-3,0.6-6.3,0.8-9.8c0.2-3.5,0.3-8,0.3-13.5V70.7v-7c0-5.7-0.1-10.4-0.3-14.2
		c-0.2-3.8-0.5-7.4-0.9-10.8c1.3,0.1,2.7,0.1,4,0.2c1.4,0,2.8,0.1,4.2,0.1c2.6,0,5.8-0.1,9.6-0.2c3.8-0.1,6.4-0.2,7.7-0.2
		c8.2,0,14,0.3,17.5,0.9c3.5,0.6,6.4,1.7,8.9,3.1c4.3,2.5,7.6,6.1,9.7,10.8c2.2,4.7,3.2,10.4,3.2,17.3c0,11.7-3.4,20.5-10.2,26.4
		c-6.8,5.9-16.9,8.8-30.4,8.8c-2.1,0-4.9,0-8.4-0.1c-3.6-0.1-6.1-0.1-7.7-0.1c-1.1,0-2.2,0-3.4,0
		C373.3,105.8,371.6,105.8,369.5,105.9 M387.3,98.5c1.1,0.2,2.1,0.4,3,0.5c1,0.1,1.9,0.1,2.8,0.1c7.8,0,13.6-2.3,17.6-6.9
		c3.9-4.6,5.9-11.5,5.9-20.6c0-9.3-1.8-16-5.4-20.1c-3.6-4.1-9.6-6.1-18-6.1c-1.4,0-2.6,0-3.4,0c-0.8,0-1.6,0.1-2.4,0.1
		c0,1.7-0.1,4.2-0.1,7.4c-0.2,10-0.2,16.8-0.2,20.3c0,2.6,0,6,0.1,10.2C387.1,87.6,387.2,92.7,387.3,98.5z M292.8,73.1
		c0-11.3,3.4-20.1,10.2-26.4c6.8-6.3,16.3-9.5,28.5-9.5c11.7,0,20.8,2.9,27.2,8.7c6.4,5.8,9.6,14,9.6,24.7
		c0,11.5-3.4,20.5-10.1,26.8c-6.7,6.4-16.2,9.6-28.5,9.6c-11.9,0-21-2.9-27.4-8.8C296,92.5,292.8,84.1,292.8,73.1z M310.7,72.3
		c0,8.9,1.8,15.9,5.3,20.9c3.5,5,8.4,7.5,14.7,7.5c6.1,0,11-2.5,14.6-7.6c3.6-5.1,5.4-12,5.4-20.8c0-9-1.8-15.9-5.3-21
		c-3.5-5.1-8.4-7.6-14.6-7.6c-6.2,0-11.1,2.5-14.7,7.6C312.4,56.4,310.7,63.4,310.7,72.3z M261.2,69.2h0.4c5.4,0,9.4-1,11.8-3.1
		c2.5-2.1,3.7-5.4,3.7-9.9c0-4.1-1-7-3.1-8.9c-2.1-1.8-5.4-2.8-10.1-2.8c0,0-0.3,0-0.8,0c-0.5,0-1.1,0-1.6,0
		c-0.1,1.6-0.2,3.2-0.3,4.9c0,1.6-0.1,3.7-0.1,6.3V69.2z M244.3,105.9c0.4-4.4,0.8-9,1-13.6c0.2-4.6,0.3-10.2,0.3-16.6v-3.4
		c0-7.5-0.1-13.8-0.3-18.9c-0.2-5.1-0.6-10-1-14.8c0.2,0,0.5,0,0.8,0c3.1,0.2,5.3,0.3,6.7,0.3c1.9,0,5.1-0.1,9.5-0.3
		c4.4-0.2,7.9-0.3,10.4-0.3c7.6,0,13.2,1.4,16.8,4.2c3.5,2.8,5.3,7.2,5.3,13.3c0,4.7-1.4,8.5-4.1,11.5c-2.7,3-6.5,4.6-11.3,5.1
		c3.5,6,7,11.7,10.6,17.3c3.6,5.6,7.3,11,11.1,16.3c-2.9-0.2-5.1-0.3-6.8-0.4c-1.6-0.1-3-0.1-4-0.1c-1.2,0-2.6,0-4.2,0.1
		c-1.6,0.1-3.4,0.2-5.6,0.4c-1.5-3.5-3.8-7.9-6.9-13.2c-3.1-5.3-7-11.5-11.6-18.4v12.9c0,3.6,0.1,6.9,0.2,10c0.1,3.1,0.3,6,0.6,8.8
		c-2.2-0.2-4-0.3-5.3-0.4c-1.4-0.1-2.5-0.1-3.5-0.1c-1,0-2.1,0-3.5,0.1C248.3,105.6,246.5,105.7,244.3,105.9z"/>
	<path class="st5" d="M598.6,73.1c0-11.3,3.4-20.1,10.2-26.4c6.8-6.3,16.3-9.5,28.5-9.5c11.7,0,20.8,2.9,27.2,8.7
		c6.4,5.8,9.6,14,9.6,24.7c0,11.5-3.4,20.5-10.1,26.8c-6.7,6.4-16.2,9.6-28.5,9.6c-11.9,0-21-2.9-27.4-8.8
		C601.8,92.5,598.6,84.1,598.6,73.1 M616.4,72.3c0,8.9,1.8,15.9,5.3,20.9c3.5,5,8.4,7.5,14.7,7.5c6.1,0,11-2.5,14.6-7.6
		c3.6-5.1,5.4-12,5.4-20.8c0-9-1.8-15.9-5.3-21c-3.5-5.1-8.4-7.6-14.6-7.6c-6.2,0-11.1,2.5-14.7,7.6
		C618.2,56.4,616.4,63.4,616.4,72.3z M566.9,69.2h0.4c5.4,0,9.4-1,11.8-3.1c2.5-2.1,3.7-5.4,3.7-9.9c0-4.1-1-7-3.1-8.9
		c-2.1-1.8-5.4-2.8-10.1-2.8c0,0-0.3,0-0.8,0c-0.5,0-1.1,0-1.6,0c-0.1,1.6-0.2,3.2-0.3,4.9c0,1.6-0.1,3.7-0.1,6.3V69.2z
		 M550.1,105.9c0.4-4.4,0.8-9,1-13.6c0.2-4.6,0.3-10.2,0.3-16.6v-3.4c0-7.5-0.1-13.8-0.3-18.9c-0.2-5.1-0.6-10-1-14.8
		c0.2,0,0.5,0,0.8,0c3.1,0.2,5.3,0.3,6.7,0.3c1.9,0,5.1-0.1,9.5-0.3c4.4-0.2,7.9-0.3,10.4-0.3c7.6,0,13.2,1.4,16.8,4.2
		c3.5,2.8,5.3,7.2,5.3,13.3c0,4.7-1.4,8.5-4.1,11.5c-2.7,3-6.5,4.6-11.3,5.1c3.5,6,7,11.7,10.6,17.3s7.3,11,11.1,16.3
		c-2.9-0.2-5.1-0.3-6.8-0.4c-1.6-0.1-3-0.1-4-0.1c-1.2,0-2.6,0-4.2,0.1c-1.6,0.1-3.4,0.2-5.6,0.4c-1.5-3.5-3.8-7.9-6.9-13.2
		c-3.1-5.3-7-11.5-11.6-18.4v12.9c0,3.6,0.1,6.9,0.2,10c0.1,3.1,0.3,6,0.6,8.8c-2.2-0.2-4-0.3-5.3-0.4c-1.4-0.1-2.5-0.1-3.5-0.1
		c-1,0-2.1,0-3.5,0.1C554.1,105.6,552.3,105.7,550.1,105.9z M547,102.4c-5.4,1.6-10.6,2.7-15.4,3.5c-4.9,0.8-9.6,1.1-14.1,1.1
		c-11,0-19.7-3.1-26-9.3c-6.3-6.2-9.5-14.7-9.5-25.4c0-10.7,3.5-19.3,10.6-25.7c7.1-6.4,16.6-9.5,28.6-9.5c4.8,0,9.2,0.5,13.3,1.5
		c4.1,1,7.9,2.6,11.6,4.7c-0.8,1.9-1.5,3.9-2.1,5.9c-0.6,2-1.1,4.1-1.4,6.2h-1.2c-2.2-3.9-4.9-6.8-8.1-8.7
		c-3.2-1.9-6.9-2.9-11.2-2.9c-6.7,0-12,2.6-16.1,7.8c-4.1,5.2-6.1,12.1-6.1,20.7c0,8.7,1.9,15.4,5.7,20.3c3.8,4.9,9.1,7.3,15.9,7.3
		c1.8,0,3.4-0.1,4.8-0.3c1.5-0.2,2.9-0.5,4.2-0.9v-2.7c0-3.5-0.1-7-0.2-10.5c-0.1-3.5-0.4-7.1-0.7-10.6c1.7,0.1,3.3,0.2,4.8,0.3
		c1.5,0.1,2.9,0.1,4.2,0.1c1.3,0,2.7,0,4.2-0.1c1.5-0.1,3.1-0.2,4.8-0.3c-0.4,3.8-0.6,6.8-0.8,9.2c-0.1,2.4-0.2,4.4-0.2,6.1
		c0,1.2,0,2.7,0.1,4.6C546.7,96.4,546.8,99,547,102.4z M425.3,105.9c5.2-11.5,10-23,14.6-34.4c4.6-11.4,8.9-22.8,12.9-34.1
		c0.1,0,0.2,0,0.3,0c2.2,0.3,3.8,0.4,4.8,0.4c0.8,0,2.1-0.1,3.9-0.3c0.5-0.1,0.8-0.1,1.1-0.1c4.1,12,8.3,23.7,12.6,35
		c4.3,11.4,8.7,22.6,13.3,33.6c-2.1-0.1-3.9-0.2-5.5-0.2c-1.6,0-2.9-0.1-4-0.1c-1.4,0-3,0-4.6,0.1c-1.6,0-3.4,0.1-5.2,0.2
		c-0.6-1.8-1.5-4.8-2.8-9c-1.3-4.2-2.3-7.5-3.1-9.8c-0.6,0-2.2-0.1-4.6-0.2c-2.5-0.1-4.5-0.1-6-0.1c-0.5,0-1.9,0-4.3,0.1
		c-2.4,0.1-4.5,0.1-6.4,0.2c-1.3,3.9-3.4,10-6.2,18.3l-0.2,0.5c-1.2-0.1-2.2-0.2-3-0.2c-0.8,0-1.4-0.1-1.9-0.1c-0.8,0-1.7,0-2.6,0.1
		C427.4,105.7,426.3,105.8,425.3,105.9z M445.1,79c0.2,0,0.6,0,1.1,0c3.2,0.1,5.4,0.1,6.8,0.1c1.5,0,4-0.1,7.5-0.2h0.5
		c-1-3.3-2.2-6.7-3.5-10.2c-1.3-3.5-2.8-7-4.4-10.7c-1.6,3.8-3,7.4-4.4,10.9C447.4,72.5,446.2,75.8,445.1,79z"/>
	<path class="st6" d="M128,83.9c-2,3.8-2.4,4.3-3.7,8.1"/>
	<path class="st6" d="M120.3,106.1c-0.7,5-0.9,6.7-1,12.2"/>
	<path class="st6" d="M118.9,132.4c0,3.5,0.1,7.1,0.4,10.7"/>
	<path class="st5" d="M664.1,125.2c2.4,0,4.1,0.2,5.1,0.5c1,0.3,1.5,0.7,1.5,1.2c0,0.2-0.1,0.5-0.2,0.8c-0.1,0.3-0.4,0.5-0.8,0.8
		c-0.4-0.2-1-0.4-1.8-0.5c-0.9-0.2-1.9-0.3-3-0.3c-1.5,0-2.7,0.2-3.5,0.6c-0.9,0.4-1.3,1-1.3,1.6c0,0.6,0.2,1.2,0.6,1.6
		c0.4,0.5,1,1,1.7,1.6l5.4,4c0.6,0.5,1.2,1,1.6,1.4s0.8,0.9,1,1.3c0.3,0.4,0.4,0.9,0.5,1.3c0.1,0.4,0.1,0.9,0.1,1.4
		c0,0.8-0.1,1.6-0.4,2.3c-0.3,0.7-0.8,1.4-1.5,2c-0.7,0.6-1.6,1-2.7,1.3c-1.1,0.3-2.6,0.5-4.3,0.5c-2.3,0-3.9-0.2-5-0.6
		c-1-0.4-1.6-0.9-1.6-1.3c0-0.3,0.1-0.6,0.2-0.9c0.2-0.3,0.4-0.7,0.8-1c0.5,0.3,1.2,0.6,2.1,0.8c0.8,0.2,1.9,0.3,3.1,0.3
		c1.8,0,3.1-0.3,3.8-0.9c0.7-0.6,1.1-1.4,1.1-2.4c0-0.7-0.2-1.4-0.6-2.1c-0.4-0.6-1.2-1.4-2.3-2.2l-5-3.8c-1.1-0.9-1.9-1.7-2.4-2.5
		c-0.5-0.7-0.7-1.5-0.7-2.2c0-1.4,0.7-2.5,2.2-3.4C659.1,125.7,661.3,125.2,664.1,125.2 M630.8,146c0,0.6,0,1,0,1.3
		c0,0.3,0,0.5-0.1,0.7c-0.1,0.2-0.1,0.3-0.2,0.3c-0.1,0-0.2,0.1-0.4,0.1h-11.8v-22.3c0-0.1,0-0.2,0.1-0.3c0.1-0.1,0.2-0.1,0.3-0.2
		c0.1-0.1,0.3-0.1,0.5-0.1H631c0,0.5,0,1,0,1.3c0,0.3,0,0.6-0.1,0.7c0,0.2-0.1,0.3-0.2,0.3c-0.1,0-0.3,0.1-0.4,0.1h-7.9v6.8h7.5
		c0,0.5,0,0.9,0,1.2c0,0.3,0,0.6-0.1,0.8c0,0.2-0.1,0.3-0.2,0.4c-0.1,0.1-0.2,0.1-0.4,0.1h-6.7v8.8H630.8z M586.3,128v19.8
		c0,0.1,0,0.2-0.1,0.3c0,0.1-0.2,0.1-0.4,0.2c-0.2,0-0.6,0-1.2,0c-0.5,0-1.3,0-2.3,0V128h-6.8v-1.9c0-0.4,0.3-0.6,0.8-0.6h17v2
		c0,0.3-0.3,0.5-0.8,0.5H586.3z M547.6,131.9c0-1.2-0.3-2.2-0.8-2.9c-0.6-0.7-1.6-1.1-3.1-1.1h-2.5v8.8h2.2c1.4,0,2.5-0.4,3.2-1.1
		C547.3,134.9,547.6,133.6,547.6,131.9z M537.1,126.1c0-0.1,0-0.2,0.1-0.3c0.1-0.1,0.2-0.1,0.2-0.2c0.1-0.1,0.3-0.1,0.5-0.1h4.9
		c3.2,0,5.5,0.5,7,1.5c1.5,1,2.2,2.7,2.2,4.9c0,1.8-0.4,3.1-1.2,4.2c-0.8,1-1.8,1.8-3.1,2.2c0.4,0.3,0.8,0.8,1.3,1.3
		c0.5,0.5,1,1.2,1.4,2c0.5,0.8,0.9,1.7,1.2,2.7c0.3,1,0.6,2.2,0.7,3.5c0,0.2-0.1,0.4-0.3,0.5c-0.2,0.1-0.8,0.1-1.7,0.1
		c-0.3,0-0.7,0-1.1,0c-0.4,0-0.8,0-1.3,0c-0.1-1.4-0.4-2.6-0.7-3.6c-0.3-1-0.7-1.9-1.1-2.7c-0.4-0.8-0.8-1.4-1.2-1.9
		c-0.4-0.5-0.8-0.9-1.1-1.1c-0.2,0-0.3,0-0.5,0c-0.2,0-0.3,0-0.5,0h-1.7v8.7c0,0.1,0,0.2-0.1,0.3c0,0.1-0.2,0.1-0.4,0.2
		c-0.3,0-0.6,0-1.2,0c-0.5,0-1.3,0-2.3,0V126.1z M497.4,137.5c0,1.5,0.1,2.8,0.2,3.9c0.2,1.1,0.4,1.9,0.8,2.6
		c0.4,0.7,0.8,1.2,1.4,1.5c0.6,0.3,1.3,0.5,2.2,0.5c0.9,0,1.7-0.2,2.3-0.5c0.6-0.3,1.1-0.9,1.5-1.6c0.4-0.7,0.7-1.7,0.8-2.8
		c0.2-1.2,0.3-2.6,0.3-4.2c0-1.6-0.1-3-0.2-4.1c-0.2-1.1-0.4-2-0.7-2.7c-0.3-0.7-0.8-1.2-1.4-1.5c-0.6-0.3-1.3-0.5-2.2-0.5
		c-0.9,0-1.6,0.2-2.2,0.5c-0.6,0.3-1.1,0.9-1.5,1.6c-0.4,0.8-0.7,1.7-0.9,2.9C497.5,134.2,497.4,135.7,497.4,137.5z M492.9,136.8
		c0-2.2,0.2-4,0.6-5.5c0.4-1.5,1-2.7,1.8-3.6c0.8-0.9,1.8-1.6,3-1.9c1.2-0.4,2.6-0.6,4.2-0.6c1.6,0,3,0.2,4.1,0.6
		c1.1,0.4,2,1,2.7,1.9c0.7,0.9,1.2,2.1,1.5,3.5c0.3,1.5,0.5,3.3,0.5,5.5c0,2.2-0.2,4.1-0.5,5.6c-0.4,1.5-0.9,2.8-1.7,3.7
		c-0.8,0.9-1.7,1.6-2.9,2c-1.2,0.4-2.6,0.6-4.2,0.6c-1.6,0-3-0.2-4.1-0.5c-1.1-0.3-2.1-1-2.8-1.9c-0.7-0.9-1.2-2.1-1.6-3.6
		C493,141.1,492.9,139.2,492.9,136.8z M463.8,131.7c0-1.2-0.3-2.1-0.9-2.8c-0.6-0.7-1.6-1.1-3.1-1.1h-2.5v8.8h2.2
		c1.4,0,2.5-0.4,3.2-1.1C463.4,134.8,463.8,133.5,463.8,131.7z M453.3,126.1c0-0.4,0.3-0.6,0.8-0.6h4.9c3.2,0,5.5,0.5,7,1.5
		c1.5,1,2.2,2.7,2.2,4.9c0,1.3-0.2,2.5-0.7,3.4c-0.5,0.9-1.1,1.6-2,2.2c-0.8,0.6-1.8,1-2.9,1.2c-1.1,0.2-2.3,0.4-3.5,0.4h-1.7v8.7
		c0,0.1,0,0.2-0.1,0.3c-0.1,0.1-0.2,0.1-0.4,0.2c-0.3,0-0.6,0-1.2,0c-0.5,0-1.3,0-2.3,0V126.1z M420.9,125.2c2.4,0,4.1,0.2,5.1,0.5
		c1,0.3,1.5,0.7,1.5,1.2c0,0.2-0.1,0.5-0.2,0.8c-0.1,0.3-0.4,0.5-0.8,0.8c-0.4-0.2-1-0.4-1.8-0.5c-0.9-0.2-1.9-0.3-3-0.3
		c-1.5,0-2.7,0.2-3.5,0.6c-0.9,0.4-1.3,1-1.3,1.6c0,0.6,0.2,1.2,0.6,1.6c0.4,0.5,1,1,1.7,1.6l5.4,4c0.6,0.5,1.2,1,1.6,1.4
		c0.4,0.4,0.8,0.9,1,1.3c0.3,0.4,0.4,0.9,0.6,1.3c0.1,0.4,0.1,0.9,0.1,1.4c0,0.8-0.1,1.6-0.4,2.3c-0.3,0.7-0.8,1.4-1.5,2
		c-0.7,0.6-1.6,1-2.7,1.3c-1.1,0.3-2.6,0.5-4.3,0.5c-2.3,0-3.9-0.2-5-0.6c-1-0.4-1.6-0.9-1.6-1.3c0-0.3,0.1-0.6,0.2-0.9
		c0.2-0.3,0.4-0.7,0.8-1c0.5,0.3,1.2,0.6,2.1,0.8c0.8,0.2,1.9,0.3,3.1,0.3c1.8,0,3.1-0.3,3.8-0.9c0.7-0.6,1.1-1.4,1.1-2.4
		c0-0.7-0.2-1.4-0.6-2.1c-0.4-0.6-1.2-1.4-2.3-2.2l-5-3.8c-1.1-0.9-1.9-1.7-2.4-2.5c-0.5-0.7-0.7-1.5-0.7-2.2c0-1.4,0.7-2.5,2.2-3.4
		C415.9,125.7,418,125.2,420.9,125.2z M377,139.4c-0.2-0.4-0.5-0.9-0.9-1.7c-0.4-0.8-0.8-1.6-1.3-2.5c-0.5-0.9-0.9-1.8-1.4-2.7
		c-0.4-0.9-0.8-1.7-1.1-2.3c0.1,0.5,0.1,1.3,0.2,2.2c0.1,1,0.1,1.9,0.2,2.9c0,1,0.1,1.9,0.1,2.8c0,0.9,0,1.5,0,1.8v7.9
		c0,0.1,0,0.2-0.1,0.3c0,0.1-0.2,0.1-0.4,0.2c-0.3,0-0.6,0-1.2,0c-0.6,0-1.3,0-2.3,0v-22.3c0-0.4,0.3-0.6,0.8-0.6h3.1l5.6,8.8
		c0.2,0.4,0.6,1,1,1.8c0.4,0.8,0.9,1.6,1.3,2.5c0.5,0.9,0.9,1.8,1.3,2.7c0.4,0.9,0.8,1.6,1.1,2.2v-0.1c-0.1-0.5-0.2-1.2-0.2-2.1
		c-0.1-0.9-0.1-1.9-0.1-2.9c0-1-0.1-1.9-0.1-2.8c0-0.9,0-1.5,0-1.9v-7.7c0-0.1,0-0.2,0.1-0.3c0-0.1,0.2-0.1,0.5-0.2
		c0.3,0,0.7-0.1,1.2-0.1c0.5,0,1.3,0,2.3,0v22.3c0,0.3-0.3,0.5-0.8,0.5h-3L377,139.4z M330,140.2h6.9l-1.7-4.6
		c-0.2-0.5-0.4-1.1-0.6-1.7c-0.2-0.6-0.3-1.1-0.5-1.7c-0.1-0.6-0.3-1.1-0.4-1.6c-0.1-0.5-0.2-0.9-0.3-1.3c-0.1,0.4-0.2,0.8-0.3,1.3
		c-0.1,0.5-0.3,1-0.4,1.6c-0.1,0.5-0.3,1.1-0.5,1.7c-0.2,0.6-0.3,1.1-0.5,1.7L330,140.2z M337.7,142.6h-8.6l-1.9,5.4
		c-0.1,0.2-0.2,0.3-0.4,0.4c-0.2,0.1-0.7,0.1-1.5,0.1c-0.3,0-0.6,0-1.1,0c-0.5,0-1,0-1.4-0.1l8.9-22.4c0.1-0.3,0.6-0.5,1.5-0.5
		c0.8,0,1.4,0,1.9,0.1l8.9,22.4c0.1,0.2,0,0.3-0.2,0.4c-0.2,0.1-0.7,0.1-1.5,0.1c-0.3,0-0.6,0-1,0c-0.4,0-0.8,0-1.3-0.1L337.7,142.6
		z M294.2,131.9c0-1.2-0.3-2.2-0.8-2.9c-0.6-0.7-1.6-1.1-3.1-1.1h-2.5v8.8h2.2c1.4,0,2.5-0.4,3.2-1.1
		C293.9,134.9,294.2,133.6,294.2,131.9z M283.7,126.1c0-0.1,0-0.2,0.1-0.3c0.1-0.1,0.2-0.1,0.2-0.2c0.1-0.1,0.3-0.1,0.5-0.1h4.9
		c3.2,0,5.5,0.5,7,1.5c1.5,1,2.2,2.7,2.2,4.9c0,1.8-0.4,3.1-1.2,4.2c-0.8,1-1.8,1.8-3.1,2.2c0.4,0.3,0.8,0.8,1.3,1.3
		c0.5,0.5,1,1.2,1.4,2c0.5,0.8,0.9,1.7,1.2,2.7c0.3,1,0.6,2.2,0.7,3.5c0,0.2-0.1,0.4-0.3,0.5c-0.2,0.1-0.8,0.1-1.7,0.1
		c-0.3,0-0.7,0-1.1,0c-0.4,0-0.8,0-1.3,0c-0.1-1.4-0.4-2.6-0.7-3.6c-0.3-1-0.7-1.9-1.1-2.7c-0.4-0.8-0.8-1.4-1.2-1.9
		c-0.4-0.5-0.8-0.9-1.1-1.1c-0.2,0-0.3,0-0.5,0c-0.2,0-0.3,0-0.5,0h-1.7v8.7c0,0.1,0,0.2-0.1,0.3c0,0.1-0.2,0.1-0.4,0.2
		c-0.3,0-0.7,0-1.2,0c-0.6,0-1.3,0-2.3,0V126.1z M251.9,128v19.8c0,0.1,0,0.2-0.1,0.3c0,0.1-0.2,0.1-0.4,0.2c-0.3,0-0.7,0-1.2,0
		c-0.5,0-1.3,0-2.3,0V128h-6.8v-1.9c0-0.4,0.3-0.6,0.8-0.6h17v2c0,0.3-0.3,0.5-0.8,0.5H251.9z"/>
</g>
</svg>
