<?xml version="1.0" encoding="utf-8"?>
<!-- Generator: Adobe Illustrator 19.0.0, SVG Export Plug-In . SVG Version: 6.00 Build 0)  -->
<svg version="1.1" id="Camada_1" xmlns="http://www.w3.org/2000/svg" xmlns:xlink="http://www.w3.org/1999/xlink" x="0px" y="0px"
	 viewBox="0 0 682 175" style="enable-background:new 0 0 682 175;" xml:space="preserve">
<style type="text/css">
	.st0{fill-rule:evenodd;clip-rule:evenodd;fill:#39383A;}
	.st1{fill:#39383A;}
</style>
<path class="st0" d="M109.9,163.5C46.1,124.9,27.7,93.9,10.8,25.6c84-24,115.7-23.6,198.3,0C193.7,94.9,171.7,122.4,109.9,163.5
	 M109.9,170.1C39.2,128,18.7,94.1,0,19.5c93.2-26.2,128.4-25.8,219.9,0C202.8,95.2,178.4,125.3,109.9,170.1z"/>
<path class="st1" d="M364.5,105.9c0.4-3,0.6-6.3,0.8-9.8c0.2-3.5,0.3-8,0.3-13.5V70.7v-7c0-5.7-0.1-10.4-0.3-14.2
	c-0.2-3.8-0.5-7.4-0.9-10.8c1.3,0.1,2.7,0.1,4,0.2c1.4,0,2.8,0.1,4.2,0.1c2.6,0,5.8-0.1,9.6-0.2c3.8-0.1,6.4-0.2,7.7-0.2
	c8.2,0,14,0.3,17.5,0.9c3.5,0.6,6.4,1.7,8.9,3.1c4.3,2.5,7.6,6.1,9.7,10.8c2.2,4.7,3.2,10.4,3.2,17.3c0,11.7-3.4,20.5-10.2,26.4
	c-6.8,5.9-16.9,8.8-30.4,8.8c-2.1,0-4.9,0-8.4-0.1c-3.6-0.1-6.1-0.1-7.7-0.1c-1.1,0-2.2,0-3.4,0
	C368.2,105.8,366.6,105.8,364.5,105.9 M382.3,98.5c1.1,0.2,2.1,0.4,3,0.5c1,0.1,1.9,0.1,2.8,0.1c7.8,0,13.6-2.3,17.6-6.9
	c3.9-4.6,5.9-11.5,5.9-20.6c0-9.3-1.8-16-5.4-20.1c-3.6-4.1-9.6-6.1-18-6.1c-1.4,0-2.6,0-3.4,0c-0.8,0-1.6,0.1-2.4,0.1
	c0,1.7-0.1,4.2-0.1,7.4c-0.2,10-0.2,16.8-0.2,20.3c0,2.6,0,6,0.1,10.2C382.1,87.6,382.2,92.7,382.3,98.5z M287.8,73.1
	c0-11.3,3.4-20.1,10.2-26.4c6.8-6.3,16.3-9.5,28.5-9.5c11.7,0,20.8,2.9,27.2,8.7c6.4,5.8,9.6,14,9.6,24.7c0,11.5-3.4,20.5-10.1,26.8
	c-6.7,6.4-16.2,9.6-28.5,9.6c-11.9,0-21-2.9-27.4-8.8C291,92.5,287.8,84.1,287.8,73.1z M305.7,72.3c0,8.9,1.8,15.9,5.3,20.9
	c3.5,5,8.4,7.5,14.7,7.5c6.1,0,11-2.5,14.6-7.6c3.6-5.1,5.4-12,5.4-20.8c0-9-1.8-15.9-5.3-21c-3.5-5.1-8.4-7.6-14.6-7.6
	c-6.2,0-11.1,2.5-14.7,7.6C307.4,56.4,305.7,63.4,305.7,72.3z M256.2,69.2h0.4c5.4,0,9.4-1,11.8-3.1c2.5-2.1,3.7-5.4,3.7-9.9
	c0-4.1-1-7-3.1-8.9c-2.1-1.8-5.4-2.8-10.1-2.8c0,0-0.3,0-0.8,0c-0.5,0-1.1,0-1.6,0c-0.1,1.6-0.2,3.2-0.3,4.9c0,1.6-0.1,3.7-0.1,6.3
	V69.2z M239.3,105.9c0.4-4.4,0.8-9,1-13.6c0.2-4.6,0.3-10.2,0.3-16.6v-3.4c0-7.5-0.1-13.8-0.3-18.9c-0.2-5.1-0.6-10-1-14.8
	c0.2,0,0.5,0,0.8,0c3.1,0.2,5.3,0.3,6.7,0.3c1.9,0,5.1-0.1,9.5-0.3c4.4-0.2,7.9-0.3,10.4-0.3c7.6,0,13.2,1.4,16.8,4.2
	c3.5,2.8,5.3,7.2,5.3,13.3c0,4.7-1.4,8.5-4.1,11.5c-2.7,3-6.5,4.6-11.3,5.1c3.5,6,7,11.7,10.6,17.3c3.6,5.6,7.3,11,11.1,16.3
	c-2.9-0.2-5.1-0.3-6.8-0.4c-1.6-0.1-3-0.1-4-0.1c-1.2,0-2.6,0-4.2,0.1c-1.6,0.1-3.4,0.2-5.6,0.4c-1.5-3.5-3.8-7.9-6.9-13.2
	c-3.1-5.3-7-11.5-11.6-18.4v12.9c0,3.6,0.1,6.9,0.2,10c0.1,3.1,0.3,6,0.6,8.8c-2.2-0.2-4-0.3-5.3-0.4c-1.4-0.1-2.5-0.1-3.5-0.1
	c-1,0-2.1,0-3.5,0.1C243.3,105.6,241.5,105.7,239.3,105.9z"/>
<path class="st1" d="M593.6,73.1c0-11.3,3.4-20.1,10.2-26.4c6.8-6.3,16.3-9.5,28.5-9.5c11.7,0,20.8,2.9,27.2,8.7
	c6.4,5.8,9.6,14,9.6,24.7c0,11.5-3.4,20.5-10.1,26.8c-6.7,6.4-16.2,9.6-28.5,9.6c-11.9,0-21-2.9-27.4-8.8
	C596.8,92.5,593.6,84.1,593.6,73.1 M611.4,72.3c0,8.9,1.8,15.9,5.3,20.9c3.5,5,8.4,7.5,14.7,7.5c6.1,0,11-2.5,14.6-7.6
	c3.6-5.1,5.4-12,5.4-20.8c0-9-1.8-15.9-5.3-21c-3.5-5.1-8.4-7.6-14.6-7.6c-6.2,0-11.1,2.5-14.7,7.6
	C613.2,56.4,611.4,63.4,611.4,72.3z M561.9,69.2h0.4c5.4,0,9.4-1,11.8-3.1c2.5-2.1,3.7-5.4,3.7-9.9c0-4.1-1-7-3.1-8.9
	c-2.1-1.8-5.4-2.8-10.1-2.8c0,0-0.3,0-0.8,0c-0.5,0-1.1,0-1.6,0c-0.1,1.6-0.2,3.2-0.3,4.9c0,1.6-0.1,3.7-0.1,6.3V69.2z M545.1,105.9
	c0.4-4.4,0.8-9,1-13.6c0.2-4.6,0.3-10.2,0.3-16.6v-3.4c0-7.5-0.1-13.8-0.3-18.9c-0.2-5.1-0.6-10-1-14.8c0.2,0,0.5,0,0.8,0
	c3.1,0.2,5.3,0.3,6.7,0.3c1.9,0,5.1-0.1,9.5-0.3c4.4-0.2,7.9-0.3,10.4-0.3c7.6,0,13.2,1.4,16.8,4.2c3.5,2.8,5.3,7.2,5.3,13.3
	c0,4.7-1.4,8.5-4.1,11.5c-2.7,3-6.5,4.6-11.3,5.1c3.5,6,7,11.7,10.6,17.3s7.3,11,11.1,16.3c-2.9-0.2-5.1-0.3-6.8-0.4
	c-1.6-0.1-3-0.1-4-0.1c-1.2,0-2.6,0-4.2,0.1c-1.6,0.1-3.4,0.2-5.6,0.4c-1.5-3.5-3.8-7.9-6.9-13.2c-3.1-5.3-7-11.5-11.6-18.4v12.9
	c0,3.6,0.1,6.9,0.2,10c0.1,3.1,0.3,6,0.6,8.8c-2.2-0.2-4-0.3-5.3-0.4c-1.4-0.1-2.5-0.1-3.5-0.1c-1,0-2.1,0-3.5,0.1
	C549,105.6,547.3,105.7,545.1,105.9z M542,102.4c-5.4,1.6-10.6,2.7-15.4,3.5c-4.9,0.8-9.6,1.1-14.1,1.1c-11,0-19.7-3.1-26-9.3
	c-6.3-6.2-9.5-14.7-9.5-25.4c0-10.7,3.5-19.3,10.6-25.7c7.1-6.4,16.6-9.5,28.6-9.5c4.8,0,9.2,0.5,13.3,1.5c4.1,1,7.9,2.6,11.6,4.7
	c-0.8,1.9-1.5,3.9-2.1,5.9c-0.6,2-1.1,4.1-1.4,6.2h-1.2c-2.2-3.9-4.9-6.8-8.1-8.7c-3.2-1.9-6.9-2.9-11.2-2.9c-6.7,0-12,2.6-16.1,7.8
	c-4.1,5.2-6.1,12.1-6.1,20.7c0,8.7,1.9,15.4,5.7,20.3c3.8,4.9,9.1,7.3,15.9,7.3c1.8,0,3.4-0.1,4.8-0.3c1.5-0.2,2.9-0.5,4.2-0.9v-2.7
	c0-3.5-0.1-7-0.2-10.5c-0.1-3.5-0.4-7.1-0.7-10.6c1.7,0.1,3.3,0.2,4.8,0.3c1.5,0.1,2.9,0.1,4.2,0.1c1.3,0,2.7,0,4.2-0.1
	c1.5-0.1,3.1-0.2,4.8-0.3c-0.4,3.8-0.6,6.8-0.8,9.2c-0.1,2.4-0.2,4.4-0.2,6.1c0,1.2,0,2.7,0.1,4.6C541.7,96.4,541.8,99,542,102.4z
	 M420.3,105.9c5.2-11.5,10-23,14.6-34.4c4.6-11.4,8.9-22.8,12.9-34.1c0.1,0,0.2,0,0.3,0c2.2,0.3,3.8,0.4,4.8,0.4
	c0.8,0,2.1-0.1,3.9-0.3c0.5-0.1,0.8-0.1,1.1-0.1c4.1,12,8.3,23.7,12.6,35c4.3,11.4,8.7,22.6,13.3,33.6c-2.1-0.1-3.9-0.2-5.5-0.2
	c-1.6,0-2.9-0.1-4-0.1c-1.4,0-3,0-4.6,0.1c-1.6,0-3.4,0.1-5.2,0.2c-0.6-1.8-1.5-4.8-2.8-9c-1.3-4.2-2.3-7.5-3.1-9.8
	c-0.6,0-2.2-0.1-4.6-0.2c-2.5-0.1-4.5-0.1-6-0.1c-0.5,0-1.9,0-4.3,0.1c-2.4,0.1-4.5,0.1-6.4,0.2c-1.3,3.9-3.4,10-6.2,18.3l-0.2,0.5
	c-1.2-0.1-2.2-0.2-3-0.2c-0.8,0-1.4-0.1-1.9-0.1c-0.8,0-1.7,0-2.6,0.1C422.3,105.7,421.3,105.8,420.3,105.9z M440.1,79
	c0.2,0,0.6,0,1.1,0c3.2,0.1,5.4,0.1,6.8,0.1c1.5,0,4-0.1,7.5-0.2h0.5c-1-3.3-2.2-6.7-3.5-10.2c-1.3-3.5-2.8-7-4.4-10.7
	c-1.6,3.8-3,7.4-4.4,10.9C442.4,72.5,441.2,75.8,440.1,79z"/>
<path class="st0" d="M20.5,31.4c1.1,4.5,2.2,8.8,3.4,13c3.4-1.1,7.2-2.1,11.4-3.1c19.6-4.7,37.2-10.1,57.5-11.8L76,28.2
	c44.5-3,72.2-1.9,85.4,4.7l-13.5,4.5c-15.8-0.6-31.4-0.1-47,1.2c12.9,2.4,27.1,3.6,39.4,7.5c-42.4,7.4-77.7,38.2-93.4,53.8
	c6.5,10.1,14.3,19.2,24.2,28l7.1-10.7c11.7-18.6,25.9-36.7,55.6-51.1c-30.5,29.8-28.6,53.4-26.7,87.3c0,0,0,0.3,0,0.6
	c1,0.6,1.9,1.2,2.9,1.8c5-3.3,9.6-6.5,14-9.6c-4.3-23.4-6.8-47.1,8.3-72.2c-6.4,25.1-0.1,42.7,10.8,57.5
	c31.3-26.2,45.5-52,56.2-100.1C124.9,10.1,96.3,9.8,20.5,31.4z M114.3,144C114.3,144,114.3,144,114.3,144c-0.5,0-0.9-0.3-0.9-0.8
	c-0.3-4.1-0.4-7.5-0.4-10.8c0-0.5,0.4-0.8,0.9-0.8c0.5,0,0.8,0.4,0.8,0.9c0,3.3,0.1,6.6,0.4,10.7C115.1,143.5,114.8,143.9,114.3,144
	z M115.1,118.3c0,0.5-0.4,0.8-0.9,0.8c0,0,0,0,0,0c-0.5,0-0.8-0.4-0.8-0.9c0.1-5.6,0.3-7.3,1-12.3c0.1-0.5,0.5-0.8,1-0.7
	c0.5,0.1,0.8,0.5,0.7,1C115.4,111.1,115.2,112.8,115.1,118.3z M123.7,84.3l-0.6,1.1c-1.5,2.8-1.9,3.6-3,6.9
	c-0.1,0.4-0.5,0.6-0.8,0.6c-0.1,0-0.2,0-0.3,0c-0.4-0.2-0.7-0.6-0.5-1.1c1.2-3.4,1.6-4.3,3.1-7.1l0.6-1.1c0.2-0.4,0.7-0.6,1.1-0.4
	C123.8,83.3,123.9,83.8,123.7,84.3z M159,67.3c4.9-7.2,4.4-11.3-0.3-12c-6.9-1.1-21.1,1.3-27.8,2.3c6.2,0.7,15.2,0.3,22.7,0.4
	c-5.8,1.7-38.7,8.4-55.6,10.7c14.1-10.9,33.3-18.6,56.8-22.5c-2.3-0.8-6.1-1.1-8.8-1.1c5-3.2,11.4-4.9,18.4-7
	C206.3,45.7,177.3,56.8,159,67.3z"/>
<path class="st1" d="M659.1,125.2c2.4,0,4.1,0.2,5.1,0.5c1,0.3,1.5,0.7,1.5,1.2c0,0.2-0.1,0.5-0.2,0.8c-0.1,0.3-0.4,0.5-0.8,0.8
	c-0.4-0.2-1-0.4-1.8-0.5c-0.9-0.2-1.9-0.3-3-0.3c-1.5,0-2.7,0.2-3.5,0.6c-0.9,0.4-1.3,1-1.3,1.6c0,0.6,0.2,1.2,0.6,1.6
	c0.4,0.5,1,1,1.7,1.6l5.4,4c0.6,0.5,1.2,1,1.6,1.4c0.4,0.4,0.8,0.9,1,1.3c0.3,0.4,0.4,0.9,0.5,1.3c0.1,0.4,0.1,0.9,0.1,1.4
	c0,0.8-0.1,1.6-0.4,2.3c-0.3,0.7-0.8,1.4-1.5,2c-0.7,0.6-1.6,1-2.7,1.3c-1.1,0.3-2.6,0.5-4.3,0.5c-2.3,0-3.9-0.2-5-0.6
	c-1-0.4-1.6-0.9-1.6-1.3c0-0.3,0.1-0.6,0.2-0.9c0.2-0.3,0.4-0.7,0.8-1c0.5,0.3,1.2,0.6,2.1,0.8c0.8,0.2,1.9,0.3,3.1,0.3
	c1.8,0,3.1-0.3,3.8-0.9c0.7-0.6,1.1-1.4,1.1-2.4c0-0.7-0.2-1.4-0.6-2.1c-0.4-0.6-1.2-1.4-2.3-2.2l-5-3.8c-1.1-0.9-1.9-1.7-2.4-2.5
	c-0.5-0.7-0.7-1.5-0.7-2.2c0-1.4,0.7-2.5,2.2-3.4C654.1,125.7,656.3,125.2,659.1,125.2 M625.8,146c0,0.6,0,1,0,1.3
	c0,0.3,0,0.5-0.1,0.7c-0.1,0.2-0.1,0.3-0.2,0.3c-0.1,0-0.2,0.1-0.4,0.1h-11.8v-22.3c0-0.1,0-0.2,0.1-0.3c0.1-0.1,0.2-0.1,0.3-0.2
	c0.1-0.1,0.3-0.1,0.5-0.1h11.9c0,0.5,0,1,0,1.3c0,0.3,0,0.6-0.1,0.7c0,0.2-0.1,0.3-0.2,0.3c-0.1,0-0.3,0.1-0.4,0.1h-7.9v6.8h7.5
	c0,0.5,0,0.9,0,1.2c0,0.3,0,0.6-0.1,0.8c0,0.2-0.1,0.3-0.2,0.4c-0.1,0.1-0.2,0.1-0.4,0.1h-6.7v8.8H625.8z M581.3,128v19.8
	c0,0.1,0,0.2-0.1,0.3c0,0.1-0.2,0.1-0.4,0.2c-0.2,0-0.6,0-1.2,0c-0.5,0-1.3,0-2.3,0V128h-6.8v-1.9c0-0.4,0.3-0.6,0.8-0.6h17v2
	c0,0.3-0.3,0.5-0.8,0.5H581.3z M542.6,131.9c0-1.2-0.3-2.2-0.8-2.9c-0.6-0.7-1.6-1.1-3.1-1.1h-2.5v8.8h2.2c1.4,0,2.5-0.4,3.2-1.1
	C542.3,134.9,542.6,133.6,542.6,131.9z M532.1,126.1c0-0.1,0-0.2,0.1-0.3c0.1-0.1,0.2-0.1,0.2-0.2c0.1-0.1,0.3-0.1,0.5-0.1h4.9
	c3.2,0,5.5,0.5,7,1.5c1.5,1,2.2,2.7,2.2,4.9c0,1.8-0.4,3.1-1.2,4.2c-0.8,1-1.8,1.8-3.1,2.2c0.4,0.3,0.8,0.8,1.3,1.3
	c0.5,0.5,1,1.2,1.4,2c0.5,0.8,0.9,1.7,1.2,2.7c0.3,1,0.6,2.2,0.7,3.5c0,0.2-0.1,0.4-0.3,0.5c-0.2,0.1-0.8,0.1-1.7,0.1
	c-0.3,0-0.7,0-1.1,0c-0.4,0-0.8,0-1.3,0c-0.1-1.4-0.4-2.6-0.7-3.6c-0.3-1-0.7-1.9-1.1-2.7c-0.4-0.8-0.8-1.4-1.2-1.9
	c-0.4-0.5-0.8-0.9-1.1-1.1c-0.2,0-0.3,0-0.5,0c-0.2,0-0.3,0-0.5,0h-1.7v8.7c0,0.1,0,0.2-0.1,0.3c0,0.1-0.2,0.1-0.4,0.2
	c-0.3,0-0.6,0-1.2,0c-0.5,0-1.3,0-2.3,0V126.1z M492.4,137.5c0,1.5,0.1,2.8,0.2,3.9c0.2,1.1,0.4,1.9,0.8,2.6
	c0.4,0.7,0.8,1.2,1.4,1.5c0.6,0.3,1.3,0.5,2.2,0.5c0.9,0,1.7-0.2,2.3-0.5c0.6-0.3,1.1-0.9,1.5-1.6c0.4-0.7,0.7-1.7,0.8-2.8
	c0.2-1.2,0.3-2.6,0.3-4.2c0-1.6-0.1-3-0.2-4.1c-0.2-1.1-0.4-2-0.7-2.7c-0.3-0.7-0.8-1.2-1.4-1.5c-0.6-0.3-1.3-0.5-2.2-0.5
	c-0.9,0-1.6,0.2-2.2,0.5c-0.6,0.3-1.1,0.9-1.5,1.6c-0.4,0.8-0.7,1.7-0.9,2.9C492.5,134.2,492.4,135.7,492.4,137.5z M487.8,136.8
	c0-2.2,0.2-4,0.6-5.5c0.4-1.5,1-2.7,1.8-3.6c0.8-0.9,1.8-1.6,3-1.9c1.2-0.4,2.6-0.6,4.2-0.6c1.6,0,3,0.2,4.1,0.6
	c1.1,0.4,2,1,2.7,1.9c0.7,0.9,1.2,2.1,1.5,3.5c0.3,1.5,0.5,3.3,0.5,5.5c0,2.2-0.2,4.1-0.5,5.6c-0.4,1.5-0.9,2.8-1.7,3.7
	c-0.8,0.9-1.7,1.6-2.9,2c-1.2,0.4-2.6,0.6-4.2,0.6c-1.6,0-3-0.2-4.1-0.5c-1.1-0.3-2.1-1-2.8-1.9c-0.7-0.9-1.2-2.1-1.6-3.6
	C488,141.1,487.8,139.2,487.8,136.8z M458.7,131.7c0-1.2-0.3-2.1-0.9-2.8c-0.6-0.7-1.6-1.1-3.1-1.1h-2.5v8.8h2.2
	c1.4,0,2.5-0.4,3.2-1.1C458.4,134.8,458.7,133.5,458.7,131.7z M448.3,126.1c0-0.4,0.3-0.6,0.8-0.6h4.9c3.2,0,5.5,0.5,7,1.5
	c1.5,1,2.2,2.7,2.2,4.9c0,1.3-0.2,2.5-0.7,3.4c-0.5,0.9-1.1,1.6-2,2.2c-0.8,0.6-1.8,1-2.9,1.2c-1.1,0.2-2.3,0.4-3.5,0.4h-1.7v8.7
	c0,0.1,0,0.2-0.1,0.3c-0.1,0.1-0.2,0.1-0.4,0.2c-0.3,0-0.6,0-1.2,0c-0.5,0-1.3,0-2.3,0V126.1z M415.9,125.2c2.4,0,4.1,0.2,5.1,0.5
	c1,0.3,1.5,0.7,1.5,1.2c0,0.2-0.1,0.5-0.2,0.8c-0.1,0.3-0.4,0.5-0.8,0.8c-0.4-0.2-1-0.4-1.8-0.5c-0.9-0.2-1.9-0.3-3-0.3
	c-1.5,0-2.7,0.2-3.5,0.6c-0.9,0.4-1.3,1-1.3,1.6c0,0.6,0.2,1.2,0.6,1.6c0.4,0.5,1,1,1.7,1.6l5.4,4c0.6,0.5,1.2,1,1.6,1.4
	c0.4,0.4,0.8,0.9,1,1.3c0.3,0.4,0.4,0.9,0.6,1.3c0.1,0.4,0.1,0.9,0.1,1.4c0,0.8-0.1,1.6-0.4,2.3c-0.3,0.7-0.8,1.4-1.5,2
	c-0.7,0.6-1.6,1-2.7,1.3c-1.1,0.3-2.6,0.5-4.3,0.5c-2.3,0-3.9-0.2-5-0.6c-1-0.4-1.6-0.9-1.6-1.3c0-0.3,0.1-0.6,0.2-0.9
	c0.2-0.3,0.4-0.7,0.8-1c0.5,0.3,1.2,0.6,2.1,0.8c0.8,0.2,1.9,0.3,3.1,0.3c1.8,0,3.1-0.3,3.8-0.9c0.7-0.6,1.1-1.4,1.1-2.4
	c0-0.7-0.2-1.4-0.6-2.1c-0.4-0.6-1.2-1.4-2.3-2.2l-5-3.8c-1.1-0.9-1.9-1.7-2.4-2.5c-0.5-0.7-0.7-1.5-0.7-2.2c0-1.4,0.7-2.5,2.2-3.4
	C410.9,125.7,413,125.2,415.9,125.2z M372,139.4c-0.2-0.4-0.5-0.9-0.9-1.7c-0.4-0.8-0.8-1.6-1.3-2.5c-0.5-0.9-0.9-1.8-1.4-2.7
	c-0.4-0.9-0.8-1.7-1.1-2.3c0.1,0.5,0.1,1.3,0.2,2.2c0.1,1,0.1,1.9,0.2,2.9c0,1,0.1,1.9,0.1,2.8c0,0.9,0,1.5,0,1.8v7.9
	c0,0.1,0,0.2-0.1,0.3c0,0.1-0.2,0.1-0.4,0.2c-0.3,0-0.6,0-1.2,0c-0.6,0-1.3,0-2.3,0v-22.3c0-0.4,0.3-0.6,0.8-0.6h3.1l5.6,8.8
	c0.2,0.4,0.6,1,1,1.8c0.4,0.8,0.9,1.6,1.3,2.5c0.5,0.9,0.9,1.8,1.3,2.7c0.4,0.9,0.8,1.6,1.1,2.2v-0.1c-0.1-0.5-0.2-1.2-0.2-2.1
	c-0.1-0.9-0.1-1.9-0.1-2.9c0-1-0.1-1.9-0.1-2.8c0-0.9,0-1.5,0-1.9v-7.7c0-0.1,0-0.2,0.1-0.3c0-0.1,0.2-0.1,0.5-0.2
	c0.3,0,0.7-0.1,1.2-0.1c0.5,0,1.3,0,2.3,0v22.3c0,0.3-0.3,0.5-0.8,0.5h-3L372,139.4z M324.9,140.2h6.9l-1.7-4.6
	c-0.2-0.5-0.4-1.1-0.6-1.7c-0.2-0.6-0.3-1.1-0.5-1.7c-0.1-0.6-0.3-1.1-0.4-1.6c-0.1-0.5-0.2-0.9-0.3-1.3c-0.1,0.4-0.2,0.8-0.3,1.3
	c-0.1,0.5-0.3,1-0.4,1.6c-0.1,0.5-0.3,1.1-0.5,1.7c-0.2,0.6-0.3,1.1-0.5,1.7L324.9,140.2z M332.7,142.6h-8.6l-1.9,5.4
	c-0.1,0.2-0.2,0.3-0.4,0.4c-0.2,0.1-0.7,0.1-1.5,0.1c-0.3,0-0.6,0-1.1,0c-0.5,0-1,0-1.4-0.1l8.9-22.4c0.1-0.3,0.6-0.5,1.5-0.5
	c0.8,0,1.4,0,1.9,0.1l8.9,22.4c0.1,0.2,0,0.3-0.2,0.4c-0.2,0.1-0.7,0.1-1.5,0.1c-0.3,0-0.6,0-1,0c-0.4,0-0.8,0-1.3-0.1L332.7,142.6z
	 M289.2,131.9c0-1.2-0.3-2.2-0.8-2.9c-0.6-0.7-1.6-1.1-3.1-1.1h-2.5v8.8h2.2c1.4,0,2.5-0.4,3.2-1.1
	C288.8,134.9,289.2,133.6,289.2,131.9z M278.7,126.1c0-0.1,0-0.2,0.1-0.3c0.1-0.1,0.2-0.1,0.2-0.2c0.1-0.1,0.3-0.1,0.5-0.1h4.9
	c3.2,0,5.5,0.5,7,1.5c1.5,1,2.2,2.7,2.2,4.9c0,1.8-0.4,3.1-1.2,4.2c-0.8,1-1.8,1.8-3.1,2.2c0.4,0.3,0.8,0.8,1.3,1.3
	c0.5,0.5,1,1.2,1.4,2c0.5,0.8,0.9,1.7,1.2,2.7c0.3,1,0.6,2.2,0.7,3.5c0,0.2-0.1,0.4-0.3,0.5c-0.2,0.1-0.8,0.1-1.7,0.1
	c-0.3,0-0.7,0-1.1,0c-0.4,0-0.8,0-1.3,0c-0.1-1.4-0.4-2.6-0.7-3.6c-0.3-1-0.7-1.9-1.1-2.7c-0.4-0.8-0.8-1.4-1.2-1.9
	c-0.4-0.5-0.8-0.9-1.1-1.1c-0.2,0-0.3,0-0.5,0c-0.2,0-0.3,0-0.5,0h-1.7v8.7c0,0.1,0,0.2-0.1,0.3c0,0.1-0.2,0.1-0.4,0.2
	c-0.3,0-0.7,0-1.2,0c-0.6,0-1.3,0-2.3,0V126.1z M246.9,128v19.8c0,0.1,0,0.2-0.1,0.3c0,0.1-0.2,0.1-0.4,0.2c-0.3,0-0.7,0-1.2,0
	c-0.5,0-1.3,0-2.3,0V128h-6.8v-1.9c0-0.4,0.3-0.6,0.8-0.6h17v2c0,0.3-0.3,0.5-0.8,0.5H246.9z"/>
</svg>
